<svg xmlns="http://www.w3.org/2000/svg" width="420" height="320" viewBox="0 0 420 320" fill="none">
  <defs>
    <linearGradient id="glow" x1="0%" y1="0%" x2="100%" y2="100%">
      <stop offset="0%" stop-color="#9B30FF"/>
      <stop offset="100%" stop-color="#00E5FF"/>
    </linearGradient>
    <filter id="blur">
      <feGaussianBlur stdDeviation="8"/>
    </filter>
  </defs>
  <ellipse cx="210" cy="280" rx="140" ry="18" fill="#9B30FF" opacity="0.25" filter="url(#blur)"/>
  <path d="M80 220 L340 220 L320 250 L100 250 Z" fill="#1a1f3a" stroke="url(#glow)" stroke-width="1.5"/>
  <rect x="130" y="170" width="90" height="55" rx="4" fill="#0d1117" stroke="#7c3aed" stroke-width="1.5"/>
  <rect x="138" y="178" width="74" height="38" rx="2" fill="#00E5FF" opacity="0.15"/>
  <rect x="240" y="155" width="110" height="70" rx="4" fill="#0d1117" stroke="#7c3aed" stroke-width="1.5"/>
  <rect x="248" y="163" width="94" height="50" rx="2" fill="#9B30FF" opacity="0.2"/>
  <rect x="255" y="170" width="30" height="4" rx="1" fill="#00E5FF" opacity="0.8"/>
  <rect x="255" y="180" width="50" height="3" rx="1" fill="#7c3aed" opacity="0.6"/>
  <rect x="255" y="190" width="40" height="3" rx="1" fill="#00E5FF" opacity="0.5"/>
  <path d="M300 120 L310 155 L290 155 Z" fill="#1a1f3a" stroke="#9B30FF" stroke-width="1"/>
  <ellipse cx="300" cy="115" rx="12" ry="8" fill="#9B30FF" opacity="0.6"/>
  <ellipse cx="300" cy="115" rx="12" ry="8" fill="#9B30FF" opacity="0.4" filter="url(#blur)"/>
  <rect x="195" y="200" width="28" height="20" rx="3" fill="#1a1f3a" stroke="#7c3aed"/>
  <ellipse cx="209" cy="198" rx="10" ry="4" fill="#3b2a5c"/>
  <circle cx="60" cy="100" r="18" fill="#0d1117" stroke="url(#glow)" stroke-width="1.5"/>
  <circle cx="360" cy="90" r="16" fill="#0d1117" stroke="url(#glow)" stroke-width="1.5"/>
  <circle cx="370" cy="180" r="14" fill="#0d1117" stroke="#7c3aed" stroke-width="1.5"/>
  <rect x="155" y="130" width="8" height="45" fill="#2d4a3e"/>
  <ellipse cx="159" cy="125" rx="22" ry="14" fill="#22c55e" opacity="0.7"/>
  <ellipse cx="159" cy="125" rx="22" ry="14" fill="#22c55e" opacity="0.3" filter="url(#blur)"/>
</svg>
